<svg width="24" height="24" viewBox="0 0 24 24" fill="none" xmlns="http://www.w3.org/2000/svg">
<path d="M18.2242 3.16553H5.77577C4.33643 3.16553 3.16553 4.33654 3.16553 5.77577V12.8892C3.16553 13.3486 3.53801 13.7211 3.99745 13.7211C4.45689 13.7211 4.82937 13.3486 4.82937 12.8892V5.77577C4.82937 5.25388 5.25399 4.82937 5.77577 4.82937H18.2242C18.7461 4.82937 19.1706 5.25399 19.1706 5.77577V18.2242C19.1706 18.7461 18.746 19.1706 18.2242 19.1706H5.77577C5.25388 19.1706 4.82937 18.746 4.82937 18.2242V16.4459C4.82937 15.9865 4.45689 15.614 3.99745 15.614C3.53801 15.614 3.16553 15.9865 3.16553 16.4459V18.2242C3.16553 19.6636 4.33654 20.8345 5.77577 20.8345H18.2242C19.6636 20.8345 20.8345 19.6635 20.8345 18.2242V5.77577C20.8345 4.33654 19.6635 3.16553 18.2242 3.16553Z" fill="#131927"/>
<path d="M7.61145 11.9999C7.61145 12.4593 7.98393 12.8318 8.44337 12.8318H13.5483L12.3009 14.0791C11.9761 14.404 11.9761 14.9308 12.3009 15.2556C12.4633 15.418 12.6763 15.4993 12.8892 15.4993C13.102 15.4993 13.315 15.4181 13.4774 15.2556L16.1449 12.5881C16.4698 12.2632 16.4698 11.7364 16.1449 11.4116L13.4774 8.74416C13.1525 8.41926 12.6257 8.41926 12.3009 8.74416C11.9761 9.06905 11.9761 9.59583 12.3009 9.92061L13.5483 11.1679H8.44337C7.98382 11.1679 7.61145 11.5404 7.61145 11.9999Z" fill="#131927"/>
</svg>
