<svg width="24" height="24" viewBox="0 0 24 24" fill="none" xmlns="http://www.w3.org/2000/svg">
<path d="M12 7.61182C11.5406 7.61182 11.1681 7.9843 11.1681 8.44374L11.1681 13.5486L9.92076 12.3013C9.59586 11.9764 9.06909 11.9764 8.74431 12.3013C8.58191 12.4637 8.50061 12.6767 8.50061 12.8895C8.50061 13.1024 8.5818 13.3154 8.74431 13.4778L11.4118 16.1452C11.7367 16.4701 12.2635 16.4701 12.5882 16.1452L15.2557 13.4778C15.5806 13.1529 15.5806 12.6261 15.2557 12.3013C14.9308 11.9764 14.404 11.9764 14.0793 12.3013L12.8319 13.5486L12.8319 8.44374C12.8319 7.98419 12.4595 7.61182 12 7.61182Z" fill="#131927"/>
<path d="M18.2242 3.16553H5.77577C4.33643 3.16553 3.16553 4.33654 3.16553 5.77577V18.2242C3.16553 19.6636 4.33654 20.8345 5.77577 20.8345H18.2242C19.6636 20.8345 20.8345 19.6635 20.8345 18.2242V5.77577C20.8345 4.33654 19.6635 3.16553 18.2242 3.16553ZM19.1706 18.2243C19.1706 18.7462 18.746 19.1707 18.2242 19.1707H5.77577C5.25388 19.1707 4.82937 18.7461 4.82937 18.2243V5.77577C4.82937 5.25388 5.25399 4.82937 5.77577 4.82937H18.2242C18.7461 4.82937 19.1706 5.25399 19.1706 5.77577V18.2243Z" fill="#131927"/>
</svg>
