<svg width="25" height="24" viewBox="0 0 25 24" fill="none" xmlns="http://www.w3.org/2000/svg">
<path d="M4.7251 6V3.6C4.7251 3.26863 4.99373 3 5.3251 3H20.1251C20.4565 3 20.7251 3.26863 20.7251 3.6V6" stroke="#131927" stroke-width="1.5" stroke-linecap="round"/>
<path d="M4.7251 18V20.4C4.7251 20.7314 4.99373 21 5.3251 21H20.1251C20.4565 21 20.7251 20.7314 20.7251 20.4V18" stroke="#131927" stroke-width="1.5" stroke-linecap="round"/>
<path d="M8.2251 15V12M8.2251 12V9H11.2251L11.2251 12H8.2251Z" stroke="#131927" stroke-width="1.5" stroke-linecap="round" stroke-linejoin="round"/>
<path d="M2.2251 15L2.2251 9L3.7251 12L5.2251 9L5.2251 15" stroke="#131927" stroke-width="1.5" stroke-linecap="round" stroke-linejoin="round"/>
<path d="M17.2251 9H14.2251L14.2251 15L17.2251 15" stroke="#131927" stroke-width="1.5" stroke-linecap="round" stroke-linejoin="round"/>
<path d="M23.2251 9H20.2251V15L23.2251 15V12.6" stroke="#131927" stroke-width="1.5" stroke-linecap="round" stroke-linejoin="round"/>
<path d="M14.2251 12H16.2251" stroke="#131927" stroke-width="1.5" stroke-linecap="round" stroke-linejoin="round"/>
</svg>
