<svg width="25" height="24" viewBox="0 0 25 24" fill="none" xmlns="http://www.w3.org/2000/svg">
<path d="M5.2251 15H7.2251C8.05352 15 8.7251 14.3284 8.7251 13.5V13.5C8.7251 12.6716 8.05352 12 7.2251 12H6.7251C5.89667 12 5.2251 11.3284 5.2251 10.5V10.5C5.2251 9.67157 5.89667 9 6.7251 9H8.2251" stroke="#131927" stroke-width="1.5" stroke-linecap="round" stroke-linejoin="round"/>
<path d="M11.2251 9L12.7251 15L14.2251 9" stroke="#131927" stroke-width="1.5" stroke-linecap="round" stroke-linejoin="round"/>
<path d="M20.2251 9H17.2251V15L20.2251 15V12.6" stroke="#131927" stroke-width="1.5" stroke-linecap="round" stroke-linejoin="round"/>
<path d="M4.7251 6V3.6C4.7251 3.26863 4.99373 3 5.3251 3H20.1251C20.4565 3 20.7251 3.26863 20.7251 3.6V6" stroke="#131927" stroke-width="1.5" stroke-linecap="round"/>
<path d="M4.7251 18V20.4C4.7251 20.7314 4.99373 21 5.3251 21H20.1251C20.4565 21 20.7251 20.7314 20.7251 20.4V18" stroke="#131927" stroke-width="1.5" stroke-linecap="round"/>
</svg>
