<svg width="128" height="128" viewBox="0 0 128 128" fill="none" xmlns="http://www.w3.org/2000/svg">
<g clip-path="url(#clip0_207_7059)">
<path d="M26.6199 59.1662C27.4934 55.2402 29.5426 52.7752 29.677 52.6249C30.4967 51.6689 32.0823 51.4405 33.2312 52.1259C34.3667 52.8112 34.5884 54.1159 33.8158 55.1019C32.5459 56.7252 30.8864 61.1201 31.659 64.986C32.4317 68.8518 33.7486 71.9782 40.9243 73.1325C45.4796 73.866 45.9298 76.9924 46.2523 79.277C46.6151 81.7841 47.0652 84.9104 51.4056 88.3374C53.1122 89.6902 55.3025 90.6942 57.6205 91.7584C58.7694 92.2874 59.9721 92.8406 61.1613 93.4658C62.9485 90.0689 64.4199 84.2551 64.299 80.7801C64.1445 76.4813 62.4849 72.375 59.4883 68.918L58.8433 68.1724L59.0516 67.2646C59.4211 65.6533 59.5689 64.018 59.5286 62.4007C58.6283 62.6653 57.4592 62.8456 56.3103 62.8336C51.4325 62.7915 47.6767 61.1081 45.137 58.3966C40.7563 53.7131 41.7641 48.5065 41.9657 45.783C42.174 43.0594 42.3621 40.889 42.7316 37.8108C43.3027 33.0431 44.0082 27.103 43.4707 24.9927C41.8246 18.4995 38.0822 18.6078 36.6713 18.6438C35.267 18.6859 34.0912 17.76 34.0509 16.5817C34.0106 15.4033 35.1125 14.4112 36.5167 14.3692C40.0239 14.273 46.2388 15.3972 48.4426 24.0849C49.1414 26.8505 48.456 32.6282 47.7909 38.2196C47.4213 41.2918 47.119 43.5104 47.0518 45.9874C46.9846 48.4644 46.5412 53.0217 49.1481 55.7572C50.7875 57.4707 53.213 58.4026 56.606 58.5589C57.8355 58.6251 60.5365 57.5368 61.981 55.3304C62.8343 53.6169 63.2576 51.7591 63.1904 49.8833C63.0896 47.1177 61.9608 44.4903 59.9318 42.2899L58.6888 40.9431L59.9788 39.6205C62.3707 37.1735 63.6271 34.0952 63.5129 30.9569C63.4188 28.3235 62.3908 25.8104 60.5499 23.6881L59.4077 22.3774L60.6104 21.0968C62.8948 18.6739 64.0907 15.6437 63.9832 12.5655C63.7279 4.98409 57.8825 -0.150335 49.7796 0.0781288C44.1829 0.234446 39.9971 2.31467 37.6589 7.1545C31.995 5.81378 25.3702 10.2147 23.8921 14.5916C22.3602 19.1248 23.2941 24.5478 29.7038 31.4198C30.6512 32.4359 31.6657 33.3497 32.7206 34.1373C33.7687 34.9189 33.8628 36.2716 32.9222 37.1554C32.4384 37.6124 31.7732 37.8589 31.1014 37.8769C30.4765 37.8949 29.8382 37.7146 29.3343 37.3418C28.0577 36.3919 26.8349 35.2917 25.6994 34.0712C21.1172 29.1592 19.4778 23.634 18.9067 19.8944C9.22492 25.8164 7.98195 36.7105 12.3895 42.7047C6.73225 50.3222 15.5272 59.6411 26.6266 59.1722L26.6199 59.1662Z" fill="#EF7197"/>
<path d="M55.1682 95.5101C52.5815 94.5361 50.0955 93.1774 47.9186 91.4579C42.2345 86.9788 41.6164 82.662 41.2065 79.8062C40.8706 77.4795 40.7698 77.4614 39.9501 77.3292C35.8113 76.6618 32.9693 75.4654 30.9872 73.9443C28.5281 74.9062 26.1161 75.3391 23.8922 75.4053C17.3346 75.5916 12.3157 72.832 12.0267 72.6697C10.8577 72.0144 10.5486 70.6857 11.3347 69.7057C12.1208 68.7257 13.6997 68.4551 14.8554 69.1045C15.1308 69.2608 21.2584 72.5615 27.9906 70.3911C27.3389 69.1465 26.0489 66.5372 26.1362 63.477C15.4466 63.7416 5.55654 58.0841 5.12653 48.6208C-8.69405 66.7898 7.77374 83.8103 26.5461 88.6201C31.5986 89.9187 35.2402 94.4459 35.294 99.1655C35.294 99.9892 35.173 101.228 34.6154 102.617C36.6109 102.953 38.9557 103.56 41.3006 104.528C40.7228 101.294 41.1797 98.5823 41.2132 98.402C41.4148 97.2356 42.725 96.43 44.1023 96.5923C45.4931 96.7606 46.4472 97.8428 46.2456 99.0092C46.2322 99.0633 45.0833 105.869 48.436 109.05C50.2164 110.739 51.9969 113.541 52.5076 116.655C52.7024 117.821 51.7282 118.91 50.3374 119.072C50.2433 119.084 50.1493 119.09 50.0619 119.09C48.7786 119.126 47.6499 118.344 47.4685 117.25C45.9634 108.13 35.509 106.861 31.8069 106.53C30.1339 108.052 27.6883 109.501 24.0803 110.577C23.825 110.655 23.5697 110.691 23.3143 110.703C22.2326 110.733 21.2181 110.186 20.8351 109.284C20.3648 108.172 21.0635 106.951 22.3939 106.555C27.4531 105.039 30.228 102.436 30.1944 99.2136C30.1675 96.3578 27.8563 93.49 24.9336 92.6783C14.4724 89.7805 6.79952 85.0488 2.04932 78.5977C-4.09167 92.9609 9.21157 99.0573 17.7176 98.1555C19.0949 98.0292 20.3849 98.8409 20.5529 100.013C20.7209 101.186 19.7265 102.256 18.329 102.4C17.637 102.472 16.9651 102.514 16.3066 102.538C13.3772 102.623 10.7771 102.202 8.53297 101.534C6.53076 109.47 15.6012 122.697 32.1697 117.256C34.2458 127.657 51.3788 132.467 61.2554 122.583C70.9708 112.861 64.2319 98.913 55.1548 95.4981L55.1682 95.5101Z" fill="#EF7197"/>
<path d="M67.4097 29.7302C67.4299 30.2652 67.4971 30.7943 67.5979 31.3174C69.5732 28.9726 71.7635 27.0066 73.2014 25.9665C73.7792 25.5517 74.3368 25.1549 74.8811 24.7701C80.2359 20.9704 82.9235 19.0645 82.4599 12.6735C82.3725 11.5372 83.4072 10.5512 84.7644 10.473C86.1485 10.3889 87.2907 11.2606 87.3713 12.403C87.9962 20.8682 83.8238 23.8262 78.0523 27.9265C77.5215 28.3053 76.9706 28.6961 76.4062 29.1049C74.2495 30.662 71.5082 33.4818 69.7479 36.1813L69.7748 36.2294L69.2641 37.1613C68.2765 38.9709 67.8062 40.8828 67.8733 42.8428C67.9405 44.6946 68.4848 46.4862 69.4926 48.1636L69.9898 48.9873L69.5866 49.847C68.5183 52.1136 68.0212 54.5005 68.1085 56.9414C68.1757 58.8954 68.6662 60.8133 69.4791 62.635C71.2663 60.5969 73.6179 58.8473 76.4734 57.5066C80.5249 55.6007 85.2415 54.7109 88.6949 55.1137C93.7004 50.0875 100.527 47.1956 108.085 46.9311C108.146 46.9311 108.213 46.9311 108.274 46.9311C112.627 46.8108 121.18 47.9171 124.97 52.4864C126.616 44.2256 123.324 37.4378 113.702 35.6822C115.57 28.8824 110.766 22.5456 106.298 20.3812C104.464 25.1188 101.521 27.7161 98.3633 29.7722C99.5122 31.1671 102.26 34.9067 102.321 38.8928C102.334 40.0231 101.273 40.955 99.9355 40.991C99.9221 40.991 99.9086 40.991 99.8885 40.991C98.5313 41.0091 97.4159 40.0952 97.3958 38.9589C97.3555 36.1512 95.2256 33.2473 94.3522 32.1831C90.3679 34.5339 86.6793 37.0651 84.3277 43.444C84.0052 44.3098 83.0713 44.8749 82.05 44.905C81.788 44.911 81.5192 44.8869 81.2505 44.8148C79.9538 44.4841 79.2281 43.3238 79.6313 42.2356C82.6749 33.9748 87.9155 30.9146 92.5381 28.2151C96.4619 25.9244 99.8683 23.9224 101.756 18.7579L102.139 17.0384C102.368 16.0043 102.468 14.9642 102.428 13.9541C102.146 5.99394 94.2111 -0.258763 84.7443 0.00577459C75.2842 0.276324 67.8062 6.96792 68.0883 14.9221C68.1622 16.9362 68.7266 18.8841 69.768 20.7118L70.3459 21.7279L69.6404 22.6899C68.0883 24.8122 67.3157 27.2471 67.403 29.7302H67.4097Z" fill="#EF7197"/>
<path d="M126.441 80.7982C124.426 82.9746 122.262 84.7542 121.886 85.0488C121.429 85.4156 120.845 85.614 120.26 85.626C119.588 85.6441 118.909 85.4336 118.412 84.9947C117.472 84.1711 117.505 82.8664 118.486 82.0728C119.534 81.2251 121.94 79.0907 123.599 77.0706L123.559 77.0285L124.439 75.796C126.468 72.9703 127.476 69.7417 127.362 66.4651C127.207 62.0521 125.037 57.9338 121.268 54.8435C121.1 54.6992 120.939 54.5549 120.764 54.4226L120.582 54.2783C117.566 52.1139 113.037 50.9295 108.267 51.0558C104.457 51.1881 97.2346 52.3484 91.611 58.6552L90.5024 59.8937L88.7756 59.3526C87.237 58.8717 83.1386 59.0941 78.8587 61.1082C75.8218 62.5331 72.2541 65.2987 70.8499 69.9702C68.6394 77.3171 74.9618 81.5978 77.1991 83.0167C78.2876 83.7081 78.7982 84.8324 78.133 85.8244C77.6963 86.4858 76.8968 86.8645 76.0636 86.8886C75.6404 86.9006 75.2036 86.8224 74.8005 86.6361C72.926 85.7703 70.3661 83.9787 68.3975 81.3754C67.813 82.9927 67.4972 84.6761 67.5576 86.3835C67.6719 89.6662 69.0022 92.7866 71.3941 95.4019L72.0995 96.1774C74.1555 98.2276 77.0513 100.23 79.3021 101.775C80.3704 102.514 81.3312 103.176 82.0635 103.735C88.9234 108.983 87.5864 115.392 85.9201 118.05C85.4901 118.729 84.6704 119.132 83.8172 119.156C83.4006 119.168 82.984 119.09 82.5943 118.916C81.3984 118.387 80.9415 117.148 81.5664 116.138C81.8754 115.621 84.3614 111.082 78.7512 106.789C78.0726 106.266 77.179 105.659 76.1846 104.973C74.4713 103.795 72.4221 102.37 70.5274 100.813C70.4333 101.408 70.3728 102.009 70.393 102.623C70.4467 104.21 70.9103 105.743 71.7569 107.18L72.3347 108.154L71.6964 109.104C70.3459 111.124 69.6808 113.408 69.7614 115.693C70.01 122.703 76.9976 128.205 85.3356 127.97C91.1675 127.802 96.2805 124.904 98.6859 120.401L99.1092 119.601L100.09 119.3C102.831 118.459 105.136 116.847 106.688 114.809C104.578 114.605 102.583 114.016 100.809 113.048C97.4765 111.226 95.3399 108.268 94.9502 104.931C94.5941 101.871 95.649 98.4441 96.7979 95.7806C94.6949 96.3999 92.5247 96.7186 90.5561 96.7727C88.4531 96.8328 86.5719 96.5983 85.2147 96.1414C83.9582 95.7145 83.3536 94.5121 83.8642 93.4479C84.3815 92.3897 85.8126 91.8787 87.0758 92.3056C89.8238 93.2375 98.4977 92.4018 101.474 87.6882C104.525 82.8183 105.337 80.2812 104.189 77.8282C103.087 75.4714 100.957 74.6237 99.3645 74.3231C96.4418 73.782 93.0488 74.6778 90.5427 76.6738C89.555 77.4614 87.9962 77.4254 87.0691 76.6017C86.1351 75.772 86.1822 74.4613 87.1698 73.6798C90.2471 71.2328 94.3052 69.9402 98.1887 70.0664C99.351 66.2186 98.3096 62.5151 98.3029 62.473C97.9804 61.3667 98.7934 60.2485 100.11 59.9719C101.414 59.7074 102.757 60.3747 103.08 61.481C103.14 61.6914 104.397 66.1945 102.966 71.0223C105.6 72.0745 107.649 73.9142 108.764 76.3011C111.129 81.3814 108.294 86.0288 103.47 93.1834C103.456 93.2074 99.2838 99.7728 99.8348 104.504C100.077 106.585 101.38 108.472 103.483 109.567C117.035 116.595 133.113 96.9049 126.441 80.7862V80.7982Z" fill="#EF7197"/>
</g>
<defs>
<clipPath id="clip0_207_7059">
<rect width="128" height="128" fill="white"/>
</clipPath>
</defs>
</svg>
