<svg width="25" height="25" viewBox="0 0 25 25" fill="none" xmlns="http://www.w3.org/2000/svg">
<path d="M18.7256 12.7783C19.0017 12.7783 19.2256 12.5545 19.2256 12.2783C19.2256 12.0022 19.0017 11.7783 18.7256 11.7783C18.4494 11.7783 18.2256 12.0022 18.2256 12.2783C18.2256 12.5545 18.4494 12.7783 18.7256 12.7783Z" fill="#131927" stroke="#131927" stroke-width="1.5" stroke-linecap="round" stroke-linejoin="round"/>
<path d="M12.7256 12.7783C13.0017 12.7783 13.2256 12.5545 13.2256 12.2783C13.2256 12.0022 13.0017 11.7783 12.7256 11.7783C12.4494 11.7783 12.2256 12.0022 12.2256 12.2783C12.2256 12.5545 12.4494 12.7783 12.7256 12.7783Z" fill="#131927" stroke="#131927" stroke-width="1.5" stroke-linecap="round" stroke-linejoin="round"/>
<path d="M6.72559 12.7783C7.00173 12.7783 7.22559 12.5545 7.22559 12.2783C7.22559 12.0022 7.00173 11.7783 6.72559 11.7783C6.44944 11.7783 6.22559 12.0022 6.22559 12.2783C6.22559 12.5545 6.44944 12.7783 6.72559 12.7783Z" fill="#131927" stroke="#131927" stroke-width="1.5" stroke-linecap="round" stroke-linejoin="round"/>
</svg>
