<svg width="25" height="24" viewBox="0 0 25 24" fill="none" xmlns="http://www.w3.org/2000/svg">
<path d="M12.7251 9L14.2251 15L15.7251 9" stroke="#131927" stroke-width="1.5" stroke-linecap="round" stroke-linejoin="round"/>
<path d="M18.7251 15V9" stroke="#131927" stroke-width="1.5" stroke-linecap="round" stroke-linejoin="round"/>
<path d="M4.7251 6V3.6C4.7251 3.26863 4.99373 3 5.3251 3H20.1251C20.4565 3 20.7251 3.26863 20.7251 3.6V6" stroke="#131927" stroke-width="1.5" stroke-linecap="round"/>
<path d="M4.7251 18V20.4C4.7251 20.7314 4.99373 21 5.3251 21H20.1251C20.4565 21 20.7251 20.7314 20.7251 20.4V18" stroke="#131927" stroke-width="1.5" stroke-linecap="round"/>
<path d="M6.7251 15V12M6.7251 12V10.5C6.7251 9.67157 7.39667 9 8.2251 9V9C9.05352 9 9.7251 9.67157 9.7251 10.5L9.7251 12M6.7251 12H9.7251M9.7251 12L9.7251 15" stroke="#131927" stroke-width="1.5" stroke-linecap="round" stroke-linejoin="round"/>
</svg>
