<svg width="25" height="24" viewBox="0 0 25 24" fill="none" xmlns="http://www.w3.org/2000/svg">
<path d="M21.7251 7.6V20.4C21.7251 20.7314 21.4565 21 21.1251 21H8.3251C7.99373 21 7.7251 20.7314 7.7251 20.4V7.6C7.7251 7.26863 7.99373 7 8.3251 7H21.1251C21.4565 7 21.7251 7.26863 21.7251 7.6Z" stroke="#131927" stroke-width="1.5" stroke-linecap="round" stroke-linejoin="round"/>
<path d="M18.7251 4H5.3251C4.99373 4 4.7251 4.26863 4.7251 4.6V18" stroke="#131927" stroke-width="1.5" stroke-linecap="round" stroke-linejoin="round"/>
<path d="M7.7251 16.8L13.1695 15L21.7251 18" stroke="#131927" stroke-width="1.5" stroke-linecap="round" stroke-linejoin="round"/>
<path d="M17.2251 13C16.3967 13 15.7251 12.3284 15.7251 11.5C15.7251 10.6716 16.3967 10 17.2251 10C18.0535 10 18.7251 10.6716 18.7251 11.5C18.7251 12.3284 18.0535 13 17.2251 13Z" stroke="#131927" stroke-width="1.5" stroke-linecap="round" stroke-linejoin="round"/>
</svg>
