<svg width="11" height="8" viewBox="0 0 11 8" fill="none" xmlns="http://www.w3.org/2000/svg">
<path fill-rule="evenodd" clip-rule="evenodd" d="M5.98216 4.19312C5.58178 4.7018 4.81095 4.7018 4.41057 4.19312L1.85134 0.941602C1.51171 0.510098 0.857824 0.510098 0.518192 0.941602V0.941602C0.275916 1.24941 0.275916 1.68309 0.518192 1.99091L4.11635 6.56238C4.11664 6.56275 4.11664 6.56327 4.11635 6.56364V6.56364C4.11606 6.56401 4.11606 6.56453 4.11635 6.5649L5.19488 7.93517C5.19513 7.9355 5.19562 7.9355 5.19587 7.93517V7.93517C5.19612 7.93485 5.19661 7.93485 5.19686 7.93517L5.19694 7.93527C5.19723 7.93564 5.19779 7.93564 5.19808 7.93527L6.27646 6.56518C6.27679 6.56476 6.27679 6.56416 6.27646 6.56374V6.56374C6.27612 6.56331 6.27612 6.56271 6.27646 6.56229L9.87469 1.99072C10.117 1.6829 10.117 1.24923 9.87469 0.941412V0.941412C9.53506 0.509909 8.88118 0.509908 8.54155 0.941412L5.98216 4.19312Z" fill="#FF5E5E"/>
</svg>
