<svg width="24" height="24" viewBox="0 0 24 24" fill="none" xmlns="http://www.w3.org/2000/svg">
<path d="M12 16.3887C12.4594 16.3887 12.8319 16.0162 12.8319 15.5567L12.8319 10.4518L14.0792 11.6992C14.4041 12.0241 14.9309 12.0241 15.2557 11.6992C15.4181 11.5368 15.4994 11.3238 15.4994 11.1109C15.4994 10.8981 15.4182 10.6851 15.2557 10.5227L12.5882 7.85524C12.2633 7.53035 11.7365 7.53035 11.4118 7.85524L8.74428 10.5227C8.41939 10.8476 8.41939 11.3744 8.74428 11.6992C9.06917 12.0241 9.59595 12.0241 9.92073 11.6992L11.1681 10.4518L11.1681 15.5567C11.1681 16.0163 11.5405 16.3887 12 16.3887Z" fill="#131927"/>
<path d="M18.2242 3.16553H5.77577C4.33643 3.16553 3.16553 4.33654 3.16553 5.77577V18.2242C3.16553 19.6636 4.33654 20.8345 5.77577 20.8345H18.2242C19.6636 20.8345 20.8345 19.6635 20.8345 18.2242V5.77577C20.8345 4.33654 19.6635 3.16553 18.2242 3.16553ZM19.1706 18.2243C19.1706 18.7462 18.746 19.1707 18.2242 19.1707H5.77577C5.25388 19.1707 4.82937 18.7461 4.82937 18.2243V5.77577C4.82937 5.25388 5.25399 4.82937 5.77577 4.82937H18.2242C18.7461 4.82937 19.1706 5.25399 19.1706 5.77577V18.2243Z" fill="#131927"/>
</svg>
