<svg width="25" height="24" viewBox="0 0 25 24" fill="none" xmlns="http://www.w3.org/2000/svg">
<path d="M7.7251 15V12M7.7251 12V9H10.7251L10.7251 12H7.7251Z" stroke="#131927" stroke-width="1.5" stroke-linecap="round" stroke-linejoin="round"/>
<path d="M16.7251 9H13.7251L13.7251 15L16.7251 15" stroke="#131927" stroke-width="1.5" stroke-linecap="round" stroke-linejoin="round"/>
<path d="M22.7251 9H19.7251V15L22.7251 15V12.6" stroke="#131927" stroke-width="1.5" stroke-linecap="round" stroke-linejoin="round"/>
<path d="M4.7251 9C4.7251 9 4.7251 11.4 4.7251 13.2C4.7251 15 2.7251 15 2.7251 15" stroke="#131927" stroke-width="1.5" stroke-linecap="round" stroke-linejoin="round"/>
<path d="M13.7251 12H15.7251" stroke="#131927" stroke-width="1.5" stroke-linecap="round" stroke-linejoin="round"/>
<path d="M4.7251 6V3.6C4.7251 3.26863 4.99373 3 5.3251 3H20.1251C20.4565 3 20.7251 3.26863 20.7251 3.6V6" stroke="#131927" stroke-width="1.5" stroke-linecap="round"/>
<path d="M4.7251 18V20.4C4.7251 20.7314 4.99373 21 5.3251 21H20.1251C20.4565 21 20.7251 20.7314 20.7251 20.4V18" stroke="#131927" stroke-width="1.5" stroke-linecap="round"/>
</svg>
