<svg width="24" height="24" viewBox="0 0 24 24" fill="none" xmlns="http://www.w3.org/2000/svg">
<path d="M18.2242 20.8345H5.77577C4.33643 20.8345 3.16553 19.6635 3.16553 18.2242V11.1108C3.16553 10.6514 3.53801 10.2789 3.99745 10.2789C4.45689 10.2789 4.82937 10.6514 4.82937 11.1108V18.2242C4.82937 18.7461 5.25399 19.1706 5.77577 19.1706H18.2242C18.7461 19.1706 19.1706 18.746 19.1706 18.2242V5.77577C19.1706 5.25388 18.746 4.82938 18.2242 4.82938H5.77577C5.25388 4.82938 4.82937 5.25399 4.82937 5.77577V7.55409C4.82937 8.01353 4.45689 8.38601 3.99745 8.38601C3.53801 8.38601 3.16553 8.01353 3.16553 7.55409V5.77577C3.16553 4.33643 4.33654 3.16553 5.77577 3.16553H18.2242C19.6636 3.16553 20.8345 4.33654 20.8345 5.77577V18.2242C20.8345 19.6635 19.6635 20.8345 18.2242 20.8345Z" fill="#131927"/>
<path d="M16.3886 12.0001C16.3886 11.5407 16.0161 11.1682 15.5566 11.1682L10.4517 11.1682L11.6991 9.92088C12.0239 9.59599 12.0239 9.06921 11.6991 8.74443C11.5367 8.58204 11.3237 8.50073 11.1108 8.50073C10.898 8.50073 10.685 8.58192 10.5226 8.74443L7.85512 11.4119C7.53023 11.7368 7.53023 12.2636 7.85512 12.5884L10.5226 15.2558C10.8475 15.5807 11.3743 15.5807 11.6991 15.2558C12.0239 14.9309 12.0239 14.4042 11.6991 14.0794L10.4517 12.8321L15.5566 12.8321C16.0162 12.8321 16.3886 12.4596 16.3886 12.0001Z" fill="#131927"/>
</svg>
