<svg width="88" height="24" viewBox="0 0 88 24" fill="none" xmlns="http://www.w3.org/2000/svg">
<path d="M40 14.5716L38.1772 12.8355C37.5352 12.2242 36.5133 12.2707 35.9295 12.9378V12.9378C35.402 13.5408 35.4175 14.4455 35.9654 15.0299L41.9074 21.368C42.2855 21.7713 42.8127 22.0001 43.3655 22.0001C44.4505 22.0001 46.2343 22.0001 48 22.0001C50.4 22.0001 52 20.0001 52 18.0001C52 18.0001 52 18.0001 52 18.0001C52 18.0001 52 11.143 52 9.42871" stroke="#131927" stroke-width="1.5" stroke-linecap="round" stroke-linejoin="round"/>
<path d="M49 10.0001C49 10.0001 49 9.87495 49 9.42864C49 7.14293 52 7.14293 52 9.42864" stroke="#131927" stroke-width="1.5" stroke-linecap="round" stroke-linejoin="round"/>
<path d="M46 9.99986C46 9.99986 46 9.1782 46 8.28557C46 5.99986 49 5.99986 49 8.28557C49 8.50873 49 9.20528 49 9.42843C49 9.87475 49 9.99986 49 9.99986" stroke="#131927" stroke-width="1.5" stroke-linecap="round" stroke-linejoin="round"/>
<path d="M43 9.99993C43 9.99993 43 8.61571 43 7.49993C43 5.21422 46 5.21422 46 7.49993C46 7.49993 46 7.49993 46 7.49993C46 7.49993 46 8.06249 46 8.28565C46 9.17827 46 9.99993 46 9.99993" stroke="#131927" stroke-width="1.5" stroke-linecap="round" stroke-linejoin="round"/>
<path d="M40 14.5714V3.5C40 2.67157 40.6716 2 41.5 2V2C42.3284 2 43 2.67056 43 3.49899C43 4.68968 43 6.34156 43 7.5C43 8.61578 43 10 43 10" stroke="#131927" stroke-width="1.5" stroke-linecap="round" stroke-linejoin="round"/>
<path d="M11 6L5 12L11 18" stroke="#131927" stroke-width="1.5" stroke-linecap="round" stroke-linejoin="round"/>
<path d="M19 6L13 12L19 18" stroke="#131927" stroke-width="1.5" stroke-linecap="round" stroke-linejoin="round"/>
<path d="M77 6L83 12L77 18" stroke="#131927" stroke-width="1.5" stroke-linecap="round" stroke-linejoin="round"/>
<path d="M69 6L75 12L69 18" stroke="#131927" stroke-width="1.5" stroke-linecap="round" stroke-linejoin="round"/>
</svg>
